<svg width="172" height="46" viewBox="0 0 172 46" fill="none" xmlns="http://www.w3.org/2000/svg">
<path fill-rule="evenodd" clip-rule="evenodd" d="M5.12563 10.6256C8.40752 7.34374 12.8587 5.5 17.5 5.5V23L17.5 40.5C12.8587 40.5 8.40752 38.6563 5.12563 35.3744C1.84374 32.0925 0 27.6413 0 23C0 18.3587 1.84375 13.9075 5.12563 10.6256ZM12.6389 19.1111C14.2497 19.1111 15.5556 17.8053 15.5556 16.1944C15.5556 14.5836 14.2497 13.2778 12.6389 13.2778C11.0281 13.2778 9.72222 14.5836 9.72222 16.1944C9.72222 17.8053 11.0281 19.1111 12.6389 19.1111Z" fill="#9651EF"/>
<path fill-rule="evenodd" clip-rule="evenodd" d="M33.8159 15.1027C34.5976 16.99 35 19.0128 35 21.0556H19.4444L19.4444 5.5C21.4872 5.5 23.51 5.90236 25.3973 6.6841C27.2846 7.46584 28.9994 8.61165 30.4439 10.0561C31.8884 11.5006 33.0342 13.2154 33.8159 15.1027ZM24.3056 19.1111C25.9164 19.1111 27.2222 17.8053 27.2222 16.1944C27.2222 14.5836 25.9164 13.2778 24.3056 13.2778C22.6947 13.2778 21.3889 14.5836 21.3889 16.1944C21.3889 17.8053 22.6947 19.1111 24.3056 19.1111Z" fill="#2079FE"/>
<path d="M57.555 35C56.3417 35 55.2683 34.8133 54.335 34.44C53.4017 34.0433 52.6783 33.4017 52.165 32.515C51.6517 31.605 51.395 30.3683 51.395 28.805V21.455H48.42V17.64H51.395L51.92 12.915H56.12V17.64H60.74V21.455H56.12V28.875C56.12 29.6917 56.295 30.2633 56.645 30.59C56.995 30.8933 57.59 31.045 58.43 31.045H60.67V35H57.555ZM63.0443 35V17.64H67.1043L67.5243 21.28H67.6293C68.1193 20.2067 68.6676 19.3783 69.2743 18.795C69.8809 18.2117 70.5809 17.8033 71.3743 17.57C72.1676 17.3367 73.0543 17.22 74.0343 17.22V22.225H72.7393C71.9693 22.225 71.2693 22.3183 70.6393 22.505C70.0093 22.6683 69.4843 22.9367 69.0643 23.31C68.6443 23.6833 68.3176 24.185 68.0843 24.815C67.8743 25.445 67.7693 26.2267 67.7693 27.16V35H63.0443ZM81.8067 35.42C80.4067 35.42 79.2517 35.1867 78.3417 34.72C77.4317 34.2533 76.7551 33.6233 76.3117 32.83C75.8684 32.0367 75.6467 31.1617 75.6467 30.205C75.6467 29.1317 75.9151 28.1867 76.4517 27.37C77.0117 26.5533 77.8517 25.9233 78.9717 25.48C80.0917 25.0133 81.5034 24.78 83.2067 24.78H87.5817C87.5817 23.9167 87.4534 23.205 87.1967 22.645C86.9634 22.085 86.5901 21.6767 86.0767 21.42C85.5867 21.14 84.9567 21 84.1867 21C83.3001 21 82.5301 21.21 81.8767 21.63C81.2234 22.0267 80.8267 22.645 80.6867 23.485H76.1017C76.2184 22.2017 76.6267 21.0933 77.3267 20.16C78.0501 19.2267 79.0067 18.5033 80.1967 17.99C81.3867 17.4767 82.7284 17.22 84.2217 17.22C85.8784 17.22 87.3134 17.5 88.5267 18.06C89.7401 18.5967 90.6734 19.4017 91.3267 20.475C91.9801 21.525 92.3067 22.8083 92.3067 24.325V35H88.3867L87.8617 32.305H87.7567C87.4534 32.8183 87.0917 33.2733 86.6717 33.67C86.2517 34.0433 85.7967 34.3583 85.3067 34.615C84.8167 34.8717 84.2801 35.07 83.6967 35.21C83.1134 35.35 82.4834 35.42 81.8067 35.42ZM83.2417 31.78C83.8717 31.78 84.4317 31.675 84.9217 31.465C85.4117 31.2317 85.8201 30.9283 86.1467 30.555C86.4967 30.1817 86.7767 29.75 86.9867 29.26C87.1967 28.7467 87.3367 28.2217 87.4067 27.685H83.7317C83.0317 27.685 82.4484 27.7783 81.9817 27.965C81.5151 28.1283 81.1767 28.3733 80.9667 28.7C80.7567 29.0033 80.6517 29.365 80.6517 29.785C80.6517 30.205 80.7567 30.5667 80.9667 30.87C81.1767 31.1733 81.4801 31.4067 81.8767 31.57C82.2734 31.71 82.7284 31.78 83.2417 31.78ZM107.172 35L99.5766 25.445L106.297 17.64H111.862L103.217 27.405L103.182 23.66L113.052 35H107.172ZM95.5516 35V10.29H100.277V35H95.5516ZM126.688 35L119.093 25.445L125.813 17.64H131.378L122.733 27.405L122.698 23.66L132.568 35H126.688ZM115.068 35V10.29H119.793V35H115.068Z" fill="#2079FE"/>
<path d="M141.585 35.42C139.765 35.42 138.167 35.035 136.79 34.265C135.437 33.4717 134.375 32.3983 133.605 31.045C132.858 29.6683 132.485 28.0933 132.485 26.32C132.485 24.5467 132.87 22.9833 133.64 21.63C134.41 20.2533 135.483 19.18 136.86 18.41C138.237 17.6167 139.823 17.22 141.62 17.22C143.86 17.22 145.738 17.8033 147.255 18.97C148.795 20.1367 149.775 21.7467 150.195 23.8H145.19C144.98 22.9833 144.548 22.3417 143.895 21.875C143.242 21.4083 142.46 21.175 141.55 21.175C140.757 21.175 140.033 21.385 139.38 21.805C138.75 22.2017 138.237 22.785 137.84 23.555C137.467 24.325 137.28 25.2467 137.28 26.32C137.28 27.1133 137.385 27.825 137.595 28.455C137.805 29.0617 138.097 29.5867 138.47 30.03C138.867 30.4733 139.322 30.8117 139.835 31.045C140.372 31.2783 140.943 31.395 141.55 31.395C142.157 31.395 142.705 31.3017 143.195 31.115C143.685 30.905 144.105 30.6133 144.455 30.24C144.805 29.8433 145.05 29.3767 145.19 28.84H150.195C149.775 30.8467 148.795 32.445 147.255 33.635C145.715 34.825 143.825 35.42 141.585 35.42ZM161.37 35.42C159.69 35.42 158.174 35.035 156.82 34.265C155.49 33.495 154.429 32.4217 153.635 31.045C152.865 29.6683 152.48 28.0933 152.48 26.32C152.48 24.5233 152.865 22.9483 153.635 21.595C154.429 20.2183 155.502 19.145 156.855 18.375C158.209 17.605 159.725 17.22 161.405 17.22C163.085 17.22 164.59 17.605 165.92 18.375C167.274 19.145 168.347 20.2183 169.14 21.595C169.934 22.9483 170.33 24.5233 170.33 26.32C170.33 28.1167 169.934 29.7033 169.14 31.08C168.347 32.4333 167.274 33.495 165.92 34.265C164.567 35.035 163.05 35.42 161.37 35.42ZM161.37 31.395C162.14 31.395 162.829 31.2083 163.435 30.835C164.065 30.4617 164.567 29.9017 164.94 29.155C165.314 28.385 165.5 27.44 165.5 26.32C165.5 25.1767 165.314 24.2317 164.94 23.485C164.567 22.7383 164.065 22.1783 163.435 21.805C162.829 21.4317 162.152 21.245 161.405 21.245C160.682 21.245 160.005 21.4317 159.375 21.805C158.745 22.1783 158.232 22.7383 157.835 23.485C157.462 24.2317 157.275 25.1767 157.275 26.32C157.275 27.44 157.462 28.385 157.835 29.155C158.232 29.9017 158.734 30.4617 159.34 30.835C159.97 31.2083 160.647 31.395 161.37 31.395Z" fill="#9651EF"/>
</svg>
